<svg id="Capa_1" enable-background="new 0 0 512 512" height="512" viewBox="0 0 512 512" width="512" xmlns="http://www.w3.org/2000/svg"><g><path d="m407 61c-41.353 0-75 34.647-75 76v300c0 24.814-21.186 45-46 45h-90c-24.814 0-45-20.186-45-45h-15-15c0 16.732 5.7 32.045 15 44.537 13.682 18.378 35.38 30.463 60 30.463h90c41.353 0 76-33.647 76-75v-300c0-24.814 20.186-46 45-46s45 21.186 45 46v210h30v-210c0-41.353-33.647-76-75-76z" fill="#e1e6f0"/><path d="m196 512h90c41.353 0 76-33.647 76-75v-300c0-24.814 20.186-46 45-46s45 21.186 45 46v210h30v-210c0-41.353-33.647-76-75-76s-75 34.647-75 76v300c0 24.814-21.186 45-46 45h-90c-24.814 0-45-20.186-45-45h-15v44.537c13.682 18.378 35.38 30.463 60 30.463z" fill="#cfd7e6"/><path d="m136 0c-24.814 0-45 20.186-45 45h30c0-8.276 6.724-15 15-15s15 6.724 15 15-6.724 15-15 15h-15v45h15 15v-17.563c17.461-6.197 30-22.881 30-42.437 0-24.814-20.186-45-45-45z" fill="#e1e6f0"/><path d="m151 87.437c17.461-6.197 30-22.881 30-42.437 0-24.814-20.186-45-45-45v30c8.276 0 15 6.724 15 15s-6.724 15-15 15v45h15z" fill="#cfd7e6"/><path d="m267.807 107.681 3.193-17.681h-135-136l3.193 17.681c19.526 107.71 19.526 218.929 0 326.639l-3.193 17.68h136 135l-3.193-17.681c-19.527-107.71-19.527-218.928 0-326.638z" fill="#f3f5f9"/><path d="m267.807 434.319c-19.526-107.71-19.526-218.929 0-326.639l3.193-17.68h-135v362h135z" fill="#e1e6f0"/><path d="m225.579 212h-89.579-90.577c4.508 70.045 1.604 140.301-9.681 210h100.258 99.258c-11.285-69.706-14.187-139.962-9.679-210z" fill="#ff7f40"/><path d="m225.579 212h-89.579v210h99.258c-11.285-69.706-14.187-139.962-9.679-210z" fill="#f25a3c"/><g><path d="m452 437h30v45h-30z" fill="#cfd7e6"/></g><g><path d="m512 452h-90v-75c0-24.814 20.186-45 45-45s45 20.186 45 45z" fill="#f25a3c"/></g><path d="m181 152v60l-15.601 15-14.399-15v-30h-30v-30z" fill="#e1e6f0"/><path d="m181 152v60l-15.601 15-14.399-15v-30h-15v-30z" fill="#cfd7e6"/><path d="m181 212v180h-30v-30h-30v-30h30v-30h-30v-30h30v-60z" fill="#f25a3c"/><path d="m181 212v180h-30v-30h-15v-30h15v-30h-15v-30h15v-60z" fill="#e63a3a"/></g></svg>