<svg id="Capa_1" enable-background="new 0 0 512 512" height="512" viewBox="0 0 512 512" width="512" xmlns="http://www.w3.org/2000/svg"><g><g><path d="m403.772 201.43-102.89 102.89-92.775-92.765 65.657-65.658 37.242-37.242c11.207-11.197 29.367-11.197 40.574 0l37.232 37.242 14.959 14.959c11.207 11.197 11.207 29.368.001 40.574z" fill="#bedaff"/></g><g><path d="m403.776 201.426c11.204-11.204 11.204-29.369 0-40.573l-52.194-52.194c-11.204-11.204-29.369-11.204-40.573 0l-213.406 213.405 92.767 92.768 151.124-151.124" fill="#f9f5f3"/></g><g><path d="m403.772 201.43c11.207-11.207 11.207-29.377 0-40.574l-.372-.372c-16.059-11.727-29.251-9.909-37.531-6.28-6.287 2.756-13.425 3.052-19.744.371-11.978-5.083-22.065-3.084-28.883-.1-6.21 2.718-13.306 2.856-19.534.179-22.609-9.717-38.53 5.83-38.53 5.83l-51.07 51.071 92.775 92.765 40.613-40.613" fill="#ff5c7f"/></g><g><path d="m370.806 94.491h47.222v47.222h-47.222z" fill="#e0e7ef" transform="matrix(.707 -.707 .707 .707 32.011 313.487)"/></g><g><g><path d="m379.227 421.23c-1.011-10.346-5.473-20.422-13.398-28.347-18.161-18.161-47.608-18.161-65.769 0s-18.161 47.608 0 65.769l-76.755-76.755 118.19-118.19 32.649 132.888c2.472 8.276 4.513 16.541 5.083 24.635z" fill="#e0e7ef"/></g><g><path d="m248.73 170.943-118.19 118.18-76.325-76.325c18.191 17.74 47.318 17.6 65.339-.42 18.161-18.161 18.161-47.608 0-65.769-8.055-8.055-18.331-12.537-28.857-13.438 8.255.51 16.7 2.591 25.145 5.123z" fill="#e0e7ef"/></g></g><g><path d="m124.07 465.003-77.387-77.387c-8.283-8.283-22.115-8.285-30.397 0-8.394 8.394-8.394 22.003 0 30.397l77.387 77.387c8.283 8.283 22.115 8.285 30.397 0 8.394-8.394 8.394-22.003 0-30.397z" fill="#e0e7ef"/></g><g><path d="m509.069 3.365c-3.909-3.906-10.242-3.906-14.151 0l-83.848 83.848-9.577-9.578c-3.853-3.853-10.297-3.851-14.151 0l-26.316 26.316-2.369-2.369c-15.087-15.087-39.637-15.087-54.724 0l-51.633 51.634c-.048.046-.091.087-.113.108-.028.029-.057.056-.085.084l-6.468 6.468-127.164-31.242c-25.4-7.581-51.758-9.101-71.873 11.013-21.97 21.97-21.97 57.718 0 79.688l.095.094c.006.007.012.013.019.02.006.007.013.012.02.019l69.658 69.659-18.785 18.785-11.287-11.287c-3.909-3.906-10.242-3.906-14.151 0-3.907 3.908-3.907 10.243 0 14.151l57.671 57.671-44.085 44.085-31.994-31.992c-12.14-12.138-32.408-12.139-44.548.001-12.281 12.282-12.281 32.265 0 44.547l77.387 77.387c12.12 12.12 32.427 12.119 44.548 0 12.138-12.14 12.138-32.407 0-44.548l-31.244-31.244 44.085-44.085 57.67 57.67c3.852 3.849 10.298 3.85 14.151 0 3.907-3.908 3.907-10.243 0-14.151l-11.286-11.286 18.786-18.786 69.791 69.792c10.985 10.985 25.414 16.478 39.844 16.478 32.427 0 58.504-28.149 56.369-60.36-.517-9.326-38.1-160.635-38.1-160.635-1.82-7.395-11.346-10.134-16.792-4.688l-33.537 33.537-78.616-78.617 43.998-43.997c1.109-1.01 12.01-10.361 27.493-3.708 8.667 3.726 18.688 3.651 27.497-.205 6.736-2.949 13.789-2.9 20.963.145 8.626 3.658 18.712 3.51 27.67-.418 8.32-3.644 17.392-2.049 26.983 4.743 7.008 7.195 7.086 19.419-.374 26.445-3.908 3.907-3.908 10.243 0 14.151 3.909 3.907 10.242 3.907 14.151 0l.202-.202.004-.004c7.309-7.309 11.334-17.027 11.334-27.363s-4.025-20.053-11.334-27.362l-2.283-2.283 26.316-26.316c3.907-3.907 3.907-10.243 0-14.151l-9.663-9.663 83.848-83.848c3.906-3.908 3.906-10.243-.002-14.151zm-392.073 484.959c-4.48 4.478-11.768 4.48-16.248 0l-77.386-77.387c-4.479-4.478-4.479-11.767 0-16.246 4.421-4.421 11.822-4.424 16.246 0l77.388 77.387c4.478 4.48 4.478 11.767 0 16.246zm75.249-246.751 15.865-15.865 78.62 78.612-15.869 15.869zm-131.363-36.256-.038-.039c-14.19-14.21-14.203-37.302-.042-51.53 14.086-14.05 37.57-14.172 51.676-.064 14.23 14.23 14.23 37.385 0 51.615-14.225 14.223-37.364 14.229-51.596.018zm30.451 30.452c12.879-1.057 25.463-6.489 35.295-16.319 17.738-17.739 21.184-44.429 10.36-65.659l92.104 22.629-98.552 98.557zm86.761 19.955 32.233 32.233-66.34 66.34-32.233-32.232zm-19.956 112.724 66.34-66.34 32.233 32.232-40.479 40.479c-.003.003-.005.006-.008.009l-25.853 25.853zm177.876-85.109 22.624 92.083c-21.592-11.051-48.535-6.732-65.653 10.385-9.56 9.56-15.258 21.943-16.346 35.268l-39.181-39.181zm24.006 166.899c-14.029 15.068-38.156 16.063-52.883 1.334-14.069-14.067-14.069-37.546 0-51.614 14.068-14.069 37.546-14.069 51.614 0 13.561 13.561 14.16 36.052 1.269 50.28zm1.831-305.198c-3.931 1.723-8.24 1.843-11.818.324-15.496-6.579-28.568-3.66-36.803-.056-3.757 1.643-7.975 1.697-11.572.152-3.508-1.508-6.889-2.532-10.125-3.175l26.552-26.552c7.284-7.285 19.138-7.285 26.422 0l26.493 26.495c-3.653.686-6.745 1.76-9.149 2.812zm32.567-7.696-19.241-19.241 19.241-19.241 19.241 19.241z"/><path d="m381.807 226.16c-2.986-4.556-9.362-5.785-13.869-2.771-4.534 3.032-5.778 9.334-2.772 13.878 3.013 4.555 9.356 5.761 13.878 2.761 4.546-3.015 5.774-9.343 2.763-13.868z"/></g></g></svg>