<svg id="color" height="512" viewBox="0 0 24 24" width="512" xmlns="http://www.w3.org/2000/svg"><path d="m17.018 20.534-12.413-8.797 1.158-1.632 12.412 8.797z" fill="#eceff1"/><circle cx="18" cy="20" fill="#607d8b" r="2"/><path d="m6.982 20.534-1.157-1.632 12.412-8.797 1.158 1.632z" fill="#eceff1"/><path d="m6 22c-1.102 0-2-.897-2-2 0-1.102.898-2 2-2 1.103 0 2 .897 2 2s-.897 2-2 2z" fill="#607d8b"/><path d="m23.25 12h-22.5c-.414 0-.75-.336-.75-.75v-.5c0-1.517 1.233-2.75 2.75-2.75h18.5c1.517 0 2.75 1.233 2.75 2.75v.5c0 .414-.336.75-.75.75z" fill="#607d8b"/><path d="m3.5 8c-1.379 0-2.5-1.121-2.5-2.5s1.121-2.5 2.5-2.5 2.5 1.121 2.5 2.5-1.121 2.5-2.5 2.5z" fill="#ffcc80"/><path d="m21.202 8h-12.452c-.414 0-.75-.336-.75-.75v-1.5c0-1.517 1.233-2.75 2.75-2.75h7.604c1.788 0 3.438.895 4.413 2.394l.036.062c.28.536.26 1.166-.054 1.684-.325.538-.904.86-1.547.86z" fill="#ffcc80"/><path d="m8.436 12h-3.46l5.294 3.752 1.73-1.226z" fill="#cdd0d2"/><path d="m12 14.526-1.73 1.226-3.432 2.432c.633.294 1.088.909 1.154 1.634l4.008-2.84z" fill="#cdd0d2"/><path d="m6 18c-1.102 0-2 .897-2 2s.898 2 2 2c1.103 0 2-.897 2-2 0-.061-.003-.121-.008-.181-.065-.726-.52-1.341-1.154-1.634-.255-.119-.539-.185-.838-.185z" fill="#546d79"/><path d="m12 8h-9.25c-1.517 0-2.75 1.233-2.75 2.75v.5c0 .414.336.75.75.75h4.226 3.46 3.564z" fill="#546d79"/><g fill="#deb26f"><path d="m3.5 3c-1.379 0-2.5 1.121-2.5 2.5s1.121 2.5 2.5 2.5 2.5-1.121 2.5-2.5-1.121-2.5-2.5-2.5z"/><path d="m12 3h-1.25c-1.517 0-2.75 1.233-2.75 2.75v1.5c0 .414.336.75.75.75h3.25z"/></g></svg>