<svg id="Capa_1" enable-background="new 0 0 511.998 511.998" height="512" viewBox="0 0 511.998 511.998" width="512" xmlns="http://www.w3.org/2000/svg"><g><path d="m193.877 38.564c0-17.155-13.907-31.062-31.062-31.062-17.155 0-31.062 13.907-31.062 31.062h-93.188v296.685c0 24.853 20.147 45 45 45h158.498c24.853 0 45-20.147 45-45v-296.685z" fill="#f2fbff"/><path d="m256.001 100.59v218.57c0 16.56-13.43 30-30 30h-126.37c-16.57 0-30-13.44-30-30v-218.57z" fill="#c8effe"/><path d="m133.561 380.25h-50c-24.85 0-45-20.15-45-45v-296.69h50v296.69c0 4.31.61 8.48 1.74 12.42 5.39 18.81 22.72 32.58 43.26 32.58z" fill="#dff6fd"/><path d="m69.631 100.59h18.93v93.29h-18.93z" fill="#99e6fc"/><path d="m256.001 193.88v125.28c0 16.56-13.43 30-30 30h-126.37c-16.57 0-30-13.44-30-30v-125.28z" fill="#fd8087"/><path d="m90.301 347.67c-12-3.91-20.67-15.2-20.67-28.51v-125.28h18.93v141.37c0 4.31.61 8.48 1.74 12.42z" fill="#fe646f"/><path d="m380.001 395.64c0-25.802 46.718-77.516 46.718-77.516s46.718 51.714 46.718 77.516-20.916 46.718-46.718 46.718-46.718-20.916-46.718-46.718z" fill="#fd8087"/><path d="m436.721 441.28c-3.22.71-6.57 1.08-10 1.08-25.8 0-46.72-20.92-46.72-46.72s46.72-77.52 46.72-77.52 4.16 4.6 10 11.75c-13.72 16.81-36.72 47.67-36.72 65.77 0 22.37 15.72 41.07 36.72 45.64z" fill="#fe646f"/><path d="m139.518 411.327h46.593v31.031h-46.593z" fill="#fd8087"/><path d="m139.521 411.33h20v31.03h-20z" fill="#fe646f"/><path d="m123.987 380.218h77.656v31.109h-77.656z" fill="#fd8087"/><path d="m123.991 380.22h30v31.11h-30z" fill="#fe646f"/><path d="m100.69 162.785h124.249v124.249h-124.249z" fill="#f2fbff"/><g><path d="m168.413 32.966c3.092 3.092 3.092 8.105 0 11.197-3.092 3.092-8.105 3.092-11.197 0-3.092-3.092-3.092-8.105 0-11.197 3.092-3.092 8.105-3.092 11.197 0z"/><g><path d="m107.061 46.06h24.69c4.142 0 7.5-3.358 7.5-7.5 0-6.29 2.452-12.205 6.903-16.657s10.368-6.903 16.657-6.903c12.997 0 23.57 10.569 23.57 23.56 0 4.142 3.358 7.5 7.5 7.5h85.68v131.42c0 4.142 3.357 7.5 7.5 7.5s7.5-3.358 7.5-7.5v-138.92c0-4.142-3.357-7.5-7.5-7.5h-86.412c-3.501-17.685-19.137-31.06-37.838-31.06-10.296 0-19.979 4.012-27.263 11.297-5.483 5.483-9.112 12.324-10.572 19.763h-17.915c-4.142 0-7.5 3.358-7.5 7.5s3.358 7.5 7.5 7.5z"/><path d="m69.631 296.27c-4.142 0-7.5 3.358-7.5 7.5v15.39c0 20.678 16.822 37.5 37.5 37.5h126.37c20.678 0 37.5-16.822 37.5-37.5v-218.57c0-4.142-3.357-7.5-7.5-7.5h-186.37c-4.142 0-7.5 3.358-7.5 7.5v170.49c0 4.142 3.358 7.5 7.5 7.5s7.5-3.358 7.5-7.5v-69.705h16.059v85.659c0 4.142 3.358 7.5 7.5 7.5h124.249c4.142 0 7.5-3.358 7.5-7.5v-85.659h16.062v117.785c0 12.407-10.093 22.5-22.5 22.5h-126.37c-12.407 0-22.5-10.093-22.5-22.5v-15.39c0-4.142-3.358-7.5-7.5-7.5zm147.808-16.736h-109.249v-109.249h109.249zm15-93.159v-23.59c0-4.142-3.358-7.5-7.5-7.5h-124.249c-4.142 0-7.5 3.358-7.5 7.5v23.59h-16.059v-78.285h171.37v78.286h-16.062z"/><path d="m131.752 201.375h62.125c4.142 0 7.5-3.358 7.5-7.5s-3.358-7.5-7.5-7.5h-62.125c-4.142 0-7.5 3.358-7.5 7.5s3.358 7.5 7.5 7.5z"/><path d="m131.752 232.375h62.125c4.142 0 7.5-3.358 7.5-7.5s-3.358-7.5-7.5-7.5h-62.125c-4.142 0-7.5 3.358-7.5 7.5s3.358 7.5 7.5 7.5z"/><path d="m131.752 263.5h62.125c4.142 0 7.5-3.358 7.5-7.5s-3.358-7.5-7.5-7.5h-62.125c-4.142 0-7.5 3.358-7.5 7.5s3.358 7.5 7.5 7.5z"/><path d="m442.374 388.28h-8.03v-8.031c0-4.142-3.357-7.5-7.5-7.5s-7.5 3.358-7.5 7.5v8.031h-8.031c-4.143 0-7.5 3.358-7.5 7.5s3.357 7.5 7.5 7.5h8.031v8.031c0 4.142 3.357 7.5 7.5 7.5s7.5-3.358 7.5-7.5v-8.031h8.03c4.143 0 7.5-3.358 7.5-7.5s-3.357-7.5-7.5-7.5z"/><path d="m434.219 315.269v-261.236c0-29.793-24.238-54.031-54.031-54.031s-54.031 24.238-54.031 54.031v403.934c0 21.522-17.509 39.031-39.03 39.031h-77.781c-21.521 0-39.031-17.509-39.031-39.031v-8.109h15.796c4.142 0 7.5-3.358 7.5-7.5v-23.531h8.031c4.142 0 7.5-3.358 7.5-7.5v-23.577h32.919c28.949 0 52.5-23.551 52.5-52.5v-125.09c0-4.142-3.357-7.5-7.5-7.5s-7.5 3.358-7.5 7.5v125.09c0 20.678-16.822 37.5-37.5 37.5h-158.5c-20.678 0-37.5-16.822-37.5-37.5v-289.19h28.32c4.142 0 7.5-3.358 7.5-7.5s-3.358-7.5-7.5-7.5h-35.82c-4.142 0-7.5 3.358-7.5 7.5v296.69c0 28.949 23.551 52.5 52.5 52.5h32.925v23.577c0 4.142 3.358 7.5 7.5 7.5h8.031v23.531c0 4.142 3.358 7.5 7.5 7.5h15.797v8.109c0 29.793 24.238 54.031 54.031 54.031h77.781c29.792 0 54.03-24.238 54.03-54.031v-403.934c0-21.522 17.51-39.031 39.031-39.031s39.031 17.509 39.031 39.031v261.235c-9.845 11.177-46.718 54.75-46.718 80.372 0 29.896 24.322 54.218 54.218 54.218s54.218-24.322 54.218-54.218c.001-25.621-36.872-69.195-46.717-80.371zm-302.732 72.481h62.656v16.077h-62.656zm15.531 47.108v-16.031h31.593v16.031zm279.701 0c-21.625 0-39.218-17.593-39.218-39.218 0-14.977 22.16-46.059 39.219-66.128 17.059 20.06 39.217 51.134 39.217 66.128 0 21.625-17.593 39.218-39.218 39.218z"/></g></g></g></svg>